HIERARCHY
ROOT Hips
{
	OFFSET 0.000000 0.000000 0.000000
	CHANNELS 6 Xposition Yposition Zposition Xrotation Yrotation Zrotation
	JOINT LeftUpLeg_virtual
	{
		OFFSET 0.000000 0.000000 0.000000
		CHANNELS 3 Xrotation Yrotation Zrotation
		JOINT LeftUpLeg
		{
			OFFSET 11.394100 -6.187798 -0.413800
			CHANNELS 3 Xrotation Yrotation Zrotation
			JOINT LeftLeg
			{
				OFFSET 0.430247 -32.302673 3.732800
				CHANNELS 3 Xrotation Yrotation Zrotation
				JOINT LeftFoot
				{
					OFFSET -0.430247 -48.264931 -6.423300
					CHANNELS 3 Xrotation Yrotation Zrotation
					JOINT LeftToeBase
					{
						OFFSET 4.230900 -16.068199 23.438400
						CHANNELS 3 Xrotation Yrotation Zrotation
						JOINT LeftToe_End
						{
							OFFSET 4.510700 0.695400 19.974600
							CHANNELS 3 Xrotation Yrotation Zrotation
							End Site
							{
								OFFSET 0 0 0
							}
						}
					}
				}
			}
		}
	}
	JOINT RightUpLeg_virtual
	{
		OFFSET 0.000000 0.000000 0.000000
		CHANNELS 3 Xrotation Yrotation Zrotation
		JOINT RightUpLeg
		{
			OFFSET -11.333700 -6.187798 -0.413800
			CHANNELS 3 Xrotation Yrotation Zrotation
			JOINT RightLeg
			{
				OFFSET -0.430392 -32.302628 3.733000
				CHANNELS 3 Xrotation Yrotation Zrotation
				JOINT RightFoot
				{
					OFFSET 0.430392 -48.264973 -6.423500
					CHANNELS 3 Xrotation Yrotation Zrotation
					JOINT RightToeBase
					{
						OFFSET -4.230900 -16.068199 23.438400
						CHANNELS 3 Xrotation Yrotation Zrotation
						JOINT RightToe_End
						{
							OFFSET -4.510700 0.695400 19.974600
							CHANNELS 3 Xrotation Yrotation Zrotation
							End Site
							{
								OFFSET 0 0 0
							}
						}
					}
				}
			}
		}
	}
	JOINT Spine_virtual
	{
		OFFSET 0.000000 0.000000 0.000000
		CHANNELS 3 Xrotation Yrotation Zrotation
		JOINT Spine
		{
			OFFSET -0.002400 12.777504 0.315300
			CHANNELS 3 Xrotation Yrotation Zrotation
			JOINT Spine1
			{
				OFFSET -0.002067 5.816869 0.032633
				CHANNELS 3 Xrotation Yrotation Zrotation
				JOINT Spine1_split
				{
					OFFSET -0.002067 5.816869 0.032633
					CHANNELS 3 Xrotation Yrotation Zrotation
					JOINT Spine2
					{
						OFFSET -0.002067 5.816869 0.032633
						CHANNELS 3 Xrotation Yrotation Zrotation
						JOINT Neck_virtual
						{
							OFFSET 0.000000 0.000000 0.000000
							CHANNELS 3 Xrotation Yrotation Zrotation
							JOINT Neck
							{
								OFFSET -0.003700 21.199493 -0.826900
								CHANNELS 3 Xrotation Yrotation Zrotation
								JOINT Head
								{
									OFFSET 0.000000 20.442200 4.834800
									CHANNELS 3 Xrotation Yrotation Zrotation
									JOINT HeadTop_End
									{
										OFFSET 0.000000 34.668396 4.968400
										CHANNELS 3 Xrotation Yrotation Zrotation
										End Site
										{
											OFFSET 0 0 0
										}
									}
								}
							}
						}
						JOINT LeftShoulder_virtual
						{
							OFFSET 0.000000 0.000000 0.000000
							CHANNELS 3 Xrotation Yrotation Zrotation
							JOINT LeftShoulder
							{
								OFFSET 3.288150 8.794197 -1.372250
								CHANNELS 3 Xrotation Yrotation Zrotation
								JOINT LeftShoulder_split
								{
									OFFSET 3.288150 8.794197 -1.372250
									CHANNELS 3 Xrotation Yrotation Zrotation
									JOINT LeftArm
									{
										OFFSET 11.953299 -2.279007 -0.146200
										CHANNELS 3 Xrotation Yrotation Zrotation
										JOINT LeftForeArm
										{
											OFFSET 18.448900 0.000000 0.000000
											CHANNELS 3 Xrotation Yrotation Zrotation
											JOINT LeftHand
											{
												OFFSET 29.527798 0.000000 0.000000
												CHANNELS 3 Xrotation Yrotation Zrotation
												End Site
												{
													OFFSET 0 0 0
												}
											}
										}
									}
								}
							}
						}
						JOINT RightShoulder_virtual
						{
							OFFSET 0.000000 0.000000 0.000000
							CHANNELS 3 Xrotation Yrotation Zrotation
							JOINT RightShoulder
							{
								OFFSET -3.249400 8.794197 -1.372250
								CHANNELS 3 Xrotation Yrotation Zrotation
								JOINT RightShoulder_split
								{
									OFFSET -3.249400 8.794197 -1.372250
									CHANNELS 3 Xrotation Yrotation Zrotation
									JOINT RightArm
									{
										OFFSET -11.953299 -2.279007 -0.146200
										CHANNELS 3 Xrotation Yrotation Zrotation
										JOINT RightForeArm
										{
											OFFSET -18.448900 0.000000 0.000000
											CHANNELS 3 Xrotation Yrotation Zrotation
											JOINT RightHand
											{
												OFFSET -29.527802 0.000000 0.000000
												CHANNELS 3 Xrotation Yrotation Zrotation
												End Site
												{
													OFFSET 0 0 0
												}
											}
										}
									}
								}
							}
						}
					}
				}
			}
		}
	}
}
MOTION
Frames: 4
Frame Time: 0.03333333
-0.674794 87.440773 -0.156994 0.000000 0.000000 0.000000 15.273345 -57.120770 14.178985 -58.826541 7.492196 26.347950 47.737090 -7.179605 -2.042687 5.984077 -2.759651 -2.727016 -0.142477 0.112037 0.401948 0.000000 0.000000 0.000000 16.299516 -58.409012 15.680045 -34.511225 -3.268540 -18.369130 54.900367 5.827407 -3.459728 -25.939860 -6.741997 9.462480 4.323934 0.284672 1.140201 0.000000 0.000000 0.000000 15.991715 -58.018414 14.010950 5.972996 1.837904 -2.876452 -3.805495 5.382601 -3.932522 0.373893 -3.657367 1.055163 0.000000 0.000000 0.000000 -1.593281 4.739252 -3.475114 -16.085343 9.453737 4.511162 2.856741 31.976979 0.472042 0.000000 0.000000 0.000000 -3.222811 5.003408 -3.620351 -31.378412 12.088559 5.201098 -7.441548 6.942883 -5.525205 36.366144 -18.630673 -36.291220 -30.965315 -85.019251 -30.764367 0.000000 0.000000 0.000000 -4.178211 4.530050 -3.648808 3.295493 13.110852 11.154356 -7.745923 2.362027 -0.696289 7.758700 4.461296 65.718195 13.260181 68.223652 -15.937528 0.000000 0.000000 0.000000 
-0.650939 87.548645 0.120752 0.000000 0.000000 0.000000 15.000695 -57.178317 13.928462 -58.822805 7.914433 26.607202 47.338231 -7.015062 -2.213043 5.666011 -2.843381 -2.644318 -0.085787 0.061281 0.506056 0.000000 0.000000 0.000000 16.147453 -58.559016 15.438162 -34.061272 -3.308162 -18.246500 54.525103 5.709064 -3.423569 -26.171226 -6.761526 9.257623 4.058002 0.276154 1.184579 0.000000 0.000000 0.000000 16.101208 -58.172462 14.137106 6.037728 1.897879 -3.050486 -3.715567 5.365549 -3.973050 0.891016 -3.432864 1.109103 0.000000 0.000000 0.000000 -1.375159 4.770036 -3.544161 -15.582312 9.923007 4.442058 2.548975 31.934560 0.565652 0.000000 0.000000 0.000000 -2.833259 4.968745 -3.544270 -31.452454 11.632774 5.206341 -6.723236 5.454038 -5.087216 36.640000 -20.346626 -36.458816 -29.469083 -84.499036 -29.080606 0.000000 0.000000 0.000000 -3.941467 4.513258 -3.661982 3.316914 13.160739 11.778858 -8.696350 2.891011 -0.204283 9.053925 4.128816 65.768315 12.208181 67.826149 -14.806079 0.000000 0.000000 0.000000 
-0.582623 87.729393 0.286827 0.000000 0.000000 0.000000 14.585020 -57.278397 13.433929 -58.261438 8.379917 26.803464 46.485209 -6.912441 -2.380703 5.203679 -2.947334 -2.579076 0.131829 -0.029869 0.530358 0.000000 0.000000 0.000000 15.624992 -58.572663 14.773014 -33.246892 -3.638780 -18.056763 53.988776 5.525558 -3.398741 -26.719712 -6.838920 8.977073 3.622401 0.239783 1.249694 0.000000 0.000000 0.000000 15.735395 -58.087767 13.904405 6.228900 1.913623 -3.285410 -3.595995 5.462395 -4.051938 1.127615 -3.332671 1.273483 0.000000 0.000000 0.000000 -1.230684 4.895523 -3.711838 -15.119571 10.580003 4.464055 1.730705 32.160987 0.981110 0.000000 0.000000 0.000000 -2.511973 5.086444 -3.560310 -31.503582 10.716214 5.016354 -5.503198 4.059698 -4.689654 37.046796 -22.530653 -36.194607 -20.954354 -82.356761 -20.557039 0.000000 0.000000 0.000000 -3.491732 4.607498 -3.778954 3.223410 12.906386 12.405726 -8.973593 3.061458 -0.177498 10.511304 5.210850 64.967270 10.895873 67.885605 -13.620073 0.000000 0.000000 0.000000 
-0.469568 87.927383 0.330629 0.000000 0.000000 0.000000 14.023767 -57.244229 12.729878 -57.394524 8.788288 26.936442 45.607810 -6.874078 -2.558759 4.662392 -3.066823 -2.488836 0.462801 -0.150747 0.465948 0.000000 0.000000 0.000000 14.881430 -58.415172 13.896973 -32.357639 -4.086600 -17.891704 53.334881 5.364037 -3.400089 -27.408943 -6.938513 8.778138 3.152882 0.183109 1.298404 0.000000 0.000000 0.000000 15.018836 -57.728062 13.414610 6.500007 1.795754 -3.450938 -3.465585 5.638932 -4.124351 0.857654 -3.278460 1.389140 0.000000 0.000000 0.000000 -1.190425 5.051184 -3.871338 -14.831872 11.435743 4.555589 0.767494 32.705125 1.345175 0.000000 0.000000 0.000000 -2.231126 5.273231 -3.633709 -31.500245 9.573941 4.700613 -4.489170 3.249327 -4.648425 37.331212 -24.530764 -35.851936 -13.963940 -78.813061 -13.628255 0.000000 0.000000 0.000000 -2.887373 4.773287 -3.947685 3.039861 12.431844 12.955730 -8.840690 2.966289 -0.229227 12.125112 7.404840 63.114179 9.479544 68.294720 -12.575498 0.000000 0.000000 0.000000 
